# Exported from Wings 3D 0.99.06
mtllib coal_truck.mtl
o cube1
#28 vertices, 26 faces
v -1.56819200 -8.5629000e-2 1.00000000
v -1.56819200 8.5629000e-2 1.00000000
v 1.56819200 8.5629000e-2 1.00000000
v 1.56819200 -8.5629000e-2 1.00000000
v -1.56819200 -8.5629000e-2 -1.00000000
v -1.56819200 8.5629000e-2 -1.00000000
v 1.56819200 8.5629000e-2 -1.00000000
v 1.56819200 -8.5629000e-2 -1.00000000
v -1.48819200 8.5629000e-2 0.92000000
v 1.48819200 8.5629000e-2 0.92000000
v 1.48819200 8.5629000e-2 -0.92000000
v -1.48819200 8.5629000e-2 -0.92000000
v 1.48819200 0.73700678 0.92000000
v -1.48819200 0.73700678 0.92000000
v -1.56819200 0.73700678 1.00000000
v 1.56819200 0.73700678 1.00000000
v 1.48819200 0.73700678 -0.92000000
v 1.48819200 0.73700678 0.92000000
v 1.56819200 0.73700678 1.00000000
v 1.56819200 0.73700678 -1.00000000
v -1.48819200 0.73700678 -0.92000000
v 1.48819200 0.73700678 -0.92000000
v 1.56819200 0.73700678 -1.00000000
v -1.56819200 0.73700678 -1.00000000
v -1.48819200 0.73700678 0.92000000
v -1.48819200 0.73700678 -0.92000000
v -1.56819200 0.73700678 -1.00000000
v -1.56819200 0.73700678 1.00000000
vn -0.57735027 -0.57735027 0.57735027
vn -0.70710678 0.0000000e+0 0.70710678
vn 0.70710678 0.0000000e+0 0.70710678
vn 0.57735027 -0.57735027 0.57735027
vn -0.57735027 -0.57735027 -0.57735027
vn -0.70710678 0.0000000e+0 -0.70710678
vn 0.70710678 0.0000000e+0 -0.70710678
vn 0.57735027 -0.57735027 -0.57735027
vn 0.57735027 0.57735027 -0.57735027
vn -0.57735027 0.57735027 -0.57735027
vn -0.57735027 0.57735027 0.57735027
vn 0.57735027 0.57735027 0.57735027
vn 0.33655677 0.47596315 -0.81251992
vn -0.33655677 0.47596315 -0.81251992
vn -0.56151667 0.79410449 0.23258782
vn 0.56151667 0.79410449 0.23258782
vn -0.81251992 0.47596315 -0.33655677
vn -0.81251992 0.47596315 0.33655677
vn 0.23258782 0.79410449 0.56151667
vn 0.23258782 0.79410449 -0.56151667
vn -0.33655677 0.47596315 0.81251992
vn 0.33655677 0.47596315 0.81251992
vn 0.56151667 0.79410449 -0.23258782
vn -0.56151667 0.79410449 -0.23258782
vn 0.81251992 0.47596315 0.33655677
vn 0.81251992 0.47596315 -0.33655677
vn -0.23258782 0.79410449 -0.56151667
vn -0.23258782 0.79410449 0.56151667
g cube1_default
usemtl default
f 1//1 4//4 3//3 2//2
f 1//1 5//5 8//8 4//4
f 2//2 6//6 5//5 1//1
f 2//2 15//15 14//14 9//9
f 2//2 28//28 27//27 6//6
f 3//3 16//16 15//15 2//2
f 3//3 19//19 18//18 10//10
f 4//4 8//8 7//7 3//3
f 6//6 7//7 8//8 5//5
f 6//6 24//24 23//23 7//7
f 6//6 27//27 26//26 12//12
f 7//7 20//20 19//19 3//3
f 7//7 23//23 22//22 11//11
f 9//9 14//14 13//13 10//10
f 9//9 25//25 28//28 2//2
f 10//10 11//11 12//12 9//9
f 10//10 13//13 16//16 3//3
f 10//10 18//18 17//17 11//11
f 11//11 17//17 20//20 7//7
f 11//11 22//22 21//21 12//12
f 12//12 21//21 24//24 6//6
f 12//12 26//26 25//25 9//9
f 14//14 15//15 16//16 13//13
f 18//18 19//19 20//20 17//17
f 22//22 23//23 24//24 21//21
f 26//26 27//27 28//28 25//25
