# Exported from Wings 3D 1.0.1
mtllib house.mtl
o cube2
#10 vertices, 16 faces
v -0.50000000 -4.4444444e-4 0.50000000
v -0.50000000 0.99955556 0.50000000
v 0.50000000 0.99955556 0.50000000
v 0.50000000 -4.4444444e-4 0.50000000
v -0.50000000 -4.4444444e-4 -0.50000000
v -0.50000000 0.99955556 -0.50000000
v 0.50000000 0.99955556 -0.50000000
v 0.50000000 -4.4444444e-4 -0.50000000
v -0.50000000 1.30782683 0.0000000e+0
v 0.50000000 1.30782683 0.0000000e+0
vn -0.57735027 -0.57735027 0.57735027
vn -0.65158146 0.36975861 0.66235955
vn 0.75326365 0.32059581 0.57429278
vn 0.57735027 -0.57735027 0.57735027
vn -0.57735027 -0.57735027 -0.57735027
vn -0.75326365 0.32059581 -0.57429278
vn 0.65158146 0.36975861 -0.66235955
vn 0.57735027 -0.57735027 -0.57735027
vn -0.35813602 0.91455554 -0.18795414
vn 0.35813602 0.91455554 0.18795414
g cube2_default
usemtl default
f 1//1 4//4 2//2
f 1//1 5//5 4//4
f 2//2 4//4 3//3
f 2//2 5//5 1//1
f 2//2 10//10 9//9
f 3//3 7//7 10//10
f 3//3 10//10 2//2
f 4//4 5//5 8//8
f 4//4 7//7 3//3
f 5//5 2//2 6//6
f 5//5 7//7 8//8
f 6//6 7//7 5//5
f 6//6 9//9 7//7
f 7//7 9//9 10//10
f 8//8 7//7 4//4
f 9//9 6//6 2//2
