# Exported from Wings 3D 1.2
mtllib platform_middle.mtl
o cube1
#16 vertices, 28 faces
v 1.9868563e-4 -1.3276931e-20 0.92459316
v 1.9868563e-4 0.35000000 0.92459316
v 1.00000601 0.35000000 0.92459316
v 1.00000601 -3.2413296e-18 0.92459316
v 1.9868563e-4 -1.3276931e-20 7.1561574e-2
v 1.9868563e-4 0.35000000 7.1561574e-2
v 1.00000601 0.35000000 7.1561574e-2
v 1.00000601 -3.2413296e-18 7.1561574e-2
v 1.9868563e-4 0.37097152 1.00066022
v 1.00000601 0.37097152 1.00066022
v 1.00000601 0.37097152 1.0739655e-3
v 1.9868563e-4 0.37097152 1.0739655e-3
v 1.9868563e-4 0.40301134 1.00066022
v 1.00000601 0.40301134 1.00066022
v 1.00000601 0.40301134 1.0739655e-3
v 1.9868563e-4 0.40301134 1.0739655e-3
vn 0.0000000e+0 0.0000000e+0 1.00000000
vn -3.2286748e-18 -1.00000000 0.0000000e+0
vn -1.00000000 0.0000000e+0 0.0000000e+0
vn 0.0000000e+0 0.0000000e+0 1.00000000
vn 0.0000000e+0 -0.96403321 0.26578181
vn -1.00000000 0.0000000e+0 0.0000000e+0
vn 0.0000000e+0 0.0000000e+0 1.00000000
vn 0.0000000e+0 -0.96403321 0.26578181
vn -1.00000000 0.0000000e+0 0.0000000e+0
vn -1.00000000 0.0000000e+0 0.0000000e+0
vn -1.00000000 0.0000000e+0 0.0000000e+0
vn -1.00000000 0.0000000e+0 0.0000000e+0
vn 0.0000000e+0 0.0000000e+0 1.00000000
vn 1.00000000 1.0475895e-15 0.0000000e+0
vn 1.00000000 1.0475895e-15 0.0000000e+0
vn 1.00000000 1.0475895e-15 0.0000000e+0
vn 1.00000000 1.0475895e-15 0.0000000e+0
vn 0.0000000e+0 -0.96403321 0.26578181
vn 0.0000000e+0 0.0000000e+0 1.00000000
vn -3.2286748e-18 -1.00000000 0.0000000e+0
vn 1.00000000 0.0000000e+0 0.0000000e+0
vn 0.0000000e+0 0.0000000e+0 1.00000000
vn 1.00000000 0.0000000e+0 0.0000000e+0
vn -3.2286748e-18 -1.00000000 0.0000000e+0
vn -3.2286748e-18 -1.00000000 0.0000000e+0
vn -6.6014015e-19 0.0000000e+0 -1.00000000
vn -3.2286748e-18 -1.00000000 0.0000000e+0
vn -6.6014015e-19 0.0000000e+0 -1.00000000
vn -1.00000000 0.0000000e+0 0.0000000e+0
vn -1.00000000 0.0000000e+0 0.0000000e+0
vn 0.0000000e+0 0.0000000e+0 -1.00000000
vn 0.0000000e+0 -0.95847786 -0.28516697
vn -1.00000000 0.0000000e+0 0.0000000e+0
vn -1.00000000 0.0000000e+0 0.0000000e+0
vn -1.00000000 0.0000000e+0 0.0000000e+0
vn -6.6014015e-19 0.0000000e+0 -1.00000000
vn 0.0000000e+0 -0.95847786 -0.28516697
vn 1.00000000 0.0000000e+0 0.0000000e+0
vn 1.00000000 0.0000000e+0 0.0000000e+0
vn 1.00000000 0.0000000e+0 0.0000000e+0
vn 1.00000000 0.0000000e+0 0.0000000e+0
vn -6.6014015e-19 0.0000000e+0 -1.00000000
vn 0.0000000e+0 -0.95847786 -0.28516697
vn -3.2286748e-18 -1.00000000 0.0000000e+0
vn -1.3202803e-18 0.0000000e+0 -1.00000000
vn 1.00000000 0.0000000e+0 0.0000000e+0
vn 0.0000000e+0 -0.96403321 0.26578181
vn -1.00000000 0.0000000e+0 0.0000000e+0
vn 0.0000000e+0 0.0000000e+0 1.00000000
vn 0.0000000e+0 -0.96403321 0.26578181
vn 0.0000000e+0 0.0000000e+0 1.00000000
vn 1.00000000 0.0000000e+0 0.0000000e+0
vn 0.0000000e+0 0.0000000e+0 1.00000000
vn 0.0000000e+0 -0.96403321 0.26578181
vn 0.0000000e+0 -0.95847786 -0.28516697
vn 1.00000000 0.0000000e+0 0.0000000e+0
vn 0.0000000e+0 0.0000000e+0 -1.00000000
vn 0.0000000e+0 -0.95847786 -0.28516697
vn 0.0000000e+0 0.0000000e+0 -1.00000000
vn 0.0000000e+0 -0.95847786 -0.28516697
vn 0.0000000e+0 0.0000000e+0 -1.00000000
vn -1.00000000 0.0000000e+0 0.0000000e+0
vn 0.0000000e+0 1.00000000 0.0000000e+0
vn 0.0000000e+0 0.0000000e+0 1.00000000
vn -1.00000000 0.0000000e+0 0.0000000e+0
vn 0.0000000e+0 1.00000000 0.0000000e+0
vn 0.0000000e+0 0.0000000e+0 1.00000000
vn -1.00000000 0.0000000e+0 0.0000000e+0
vn 0.0000000e+0 0.0000000e+0 1.00000000
vn 1.00000000 2.0951791e-15 0.0000000e+0
vn 1.00000000 2.0951791e-15 0.0000000e+0
vn 0.0000000e+0 1.00000000 0.0000000e+0
vn 0.0000000e+0 1.00000000 0.0000000e+0
vn 0.0000000e+0 0.0000000e+0 -1.00000000
vn 1.00000000 1.3967861e-15 0.0000000e+0
vn 1.00000000 1.3967861e-15 0.0000000e+0
vn 1.00000000 1.3967861e-15 0.0000000e+0
vn 0.0000000e+0 0.0000000e+0 -1.00000000
vn 0.0000000e+0 1.00000000 0.0000000e+0
vn 0.0000000e+0 1.00000000 0.0000000e+0
vn 0.0000000e+0 0.0000000e+0 -1.00000000
vn -1.00000000 0.0000000e+0 0.0000000e+0
vn -1.00000000 0.0000000e+0 0.0000000e+0
vn -1.00000000 0.0000000e+0 0.0000000e+0
g cube1_concrete
usemtl concrete
s 1
f 1//1 4//22 2//7
f 2//4 4//19 3//13
f 5//26 7//36 8//45
f 6//31 7//42 5//28
f 10//53 13//67 9//49
f 12//61 15//78 11//57
f 13//64 10//51 14//69
f 15//74 12//59 16//81
s 2
f 1//2 5//27 4//24
f 3//18 10//54 2//8
f 4//20 5//25 8//44
f 6//32 12//60 7//43
f 9//47 2//5 10//50
f 11//55 7//37 12//58
f 14//72 15//79 13//66
f 16//80 13//63 15//73
s 3
f 2//12 5//30 1//3
f 3//17 14//71 10//52
f 4//23 7//39 3//14
f 5//29 2//11 6//34
f 6//35 16//84 12//62
f 7//41 15//76 3//15
f 8//46 7//38 4//21
f 9//48 13//65 2//6
f 11//56 15//75 7//40
f 14//70 3//16 15//77
f 16//82 2//9 13//68
f 16//83 6//33 2//10
