# Exported from Wings 3D 1.2
mtllib platform_middle.mtl
o cube1
#16 vertices, 28 faces
v 0.0000000e+0 0.0000000e+0 1.00000000
v 0.0000000e+0 0.35000000 1.00000000
v 1.00000000 0.35000000 1.00000000
v 1.00000000 0.0000000e+0 1.00000000
v 0.0000000e+0 0.0000000e+0 0.0000000e+0
v 0.0000000e+0 0.35000000 0.0000000e+0
v 1.00000000 0.35000000 0.0000000e+0
v 1.00000000 0.0000000e+0 0.0000000e+0
v 0.0000000e+0 0.37097152 1.07048761
v 1.00000000 0.37097152 1.07048761
v 1.00000000 0.37097152 -7.0487609e-2
v 0.0000000e+0 0.37097152 -7.0487609e-2
v 0.0000000e+0 0.40301134 1.07048761
v 1.00000000 0.40301134 1.07048761
v 1.00000000 0.40301134 -7.0487609e-2
v 0.0000000e+0 0.40301134 -7.0487609e-2
vn 0.0000000e+0 0.0000000e+0 1.00000000
vn 0.0000000e+0 -1.00000000 0.0000000e+0
vn -1.00000000 0.0000000e+0 0.0000000e+0
vn 0.0000000e+0 0.0000000e+0 1.00000000
vn -1.00000000 0.0000000e+0 0.0000000e+0
vn 0.0000000e+0 -0.95847786 0.28516697
vn -1.00000000 0.0000000e+0 0.0000000e+0
vn 0.0000000e+0 0.0000000e+0 1.00000000
vn -1.00000000 0.0000000e+0 0.0000000e+0
vn 0.0000000e+0 -0.95847786 0.28516697
vn -1.00000000 0.0000000e+0 0.0000000e+0
vn 0.0000000e+0 0.0000000e+0 1.00000000
vn 1.00000000 0.0000000e+0 0.0000000e+0
vn 1.00000000 0.0000000e+0 0.0000000e+0
vn 0.0000000e+0 -0.95847786 0.28516697
vn 0.0000000e+0 0.0000000e+0 1.00000000
vn 1.00000000 0.0000000e+0 0.0000000e+0
vn 0.0000000e+0 -1.00000000 0.0000000e+0
vn 0.0000000e+0 0.0000000e+0 1.00000000
vn 1.00000000 0.0000000e+0 0.0000000e+0
vn 0.0000000e+0 -1.00000000 0.0000000e+0
vn 0.0000000e+0 -1.00000000 0.0000000e+0
vn 0.0000000e+0 0.0000000e+0 -1.00000000
vn -1.00000000 0.0000000e+0 0.0000000e+0
vn 0.0000000e+0 0.0000000e+0 -1.00000000
vn 0.0000000e+0 -1.00000000 0.0000000e+0
vn -1.00000000 0.0000000e+0 0.0000000e+0
vn -1.00000000 0.0000000e+0 0.0000000e+0
vn 0.0000000e+0 -0.95847786 -0.28516697
vn 0.0000000e+0 0.0000000e+0 -1.00000000
vn -1.00000000 0.0000000e+0 0.0000000e+0
vn 1.00000000 0.0000000e+0 0.0000000e+0
vn 0.0000000e+0 0.0000000e+0 -1.00000000
vn 1.00000000 0.0000000e+0 0.0000000e+0
vn 0.0000000e+0 -0.95847786 -0.28516697
vn 1.00000000 0.0000000e+0 0.0000000e+0
vn 0.0000000e+0 -0.95847786 -0.28516697
vn 0.0000000e+0 0.0000000e+0 -1.00000000
vn 1.00000000 0.0000000e+0 0.0000000e+0
vn 1.00000000 0.0000000e+0 0.0000000e+0
vn 0.0000000e+0 -1.00000000 0.0000000e+0
vn 0.0000000e+0 0.0000000e+0 -1.00000000
vn 0.0000000e+0 -0.95847786 0.28516697
vn -1.00000000 0.0000000e+0 0.0000000e+0
vn -1.00000000 0.0000000e+0 0.0000000e+0
vn 0.0000000e+0 0.0000000e+0 1.00000000
vn 0.0000000e+0 -0.95847786 0.28516697
vn 1.00000000 0.0000000e+0 0.0000000e+0
vn 0.0000000e+0 0.0000000e+0 1.00000000
vn 1.00000000 0.0000000e+0 0.0000000e+0
vn 1.00000000 0.0000000e+0 0.0000000e+0
vn 0.0000000e+0 0.0000000e+0 1.00000000
vn 1.00000000 0.0000000e+0 0.0000000e+0
vn 0.0000000e+0 -0.95847786 0.28516697
vn 1.00000000 0.0000000e+0 0.0000000e+0
vn 0.0000000e+0 -0.95847786 -0.28516697
vn 1.00000000 0.0000000e+0 0.0000000e+0
vn 0.0000000e+0 0.0000000e+0 -1.00000000
vn 0.0000000e+0 -0.95847786 -0.28516697
vn -1.00000000 0.0000000e+0 0.0000000e+0
vn 0.0000000e+0 0.0000000e+0 -1.00000000
vn -1.00000000 0.0000000e+0 0.0000000e+0
vn 0.0000000e+0 -0.95847786 -0.28516697
vn -1.00000000 0.0000000e+0 0.0000000e+0
vn 0.0000000e+0 0.0000000e+0 -1.00000000
vn -1.00000000 0.0000000e+0 0.0000000e+0
vn 0.0000000e+0 1.00000000 0.0000000e+0
vn 0.0000000e+0 0.0000000e+0 1.00000000
vn -1.00000000 0.0000000e+0 0.0000000e+0
vn -1.00000000 0.0000000e+0 0.0000000e+0
vn 0.0000000e+0 1.00000000 0.0000000e+0
vn 0.0000000e+0 0.0000000e+0 1.00000000
vn 0.0000000e+0 0.0000000e+0 1.00000000
vn 1.00000000 0.0000000e+0 0.0000000e+0
vn 0.0000000e+0 1.00000000 0.0000000e+0
vn 0.0000000e+0 1.00000000 0.0000000e+0
vn 1.00000000 0.0000000e+0 0.0000000e+0
vn 0.0000000e+0 0.0000000e+0 -1.00000000
vn 0.0000000e+0 1.00000000 0.0000000e+0
vn 1.00000000 0.0000000e+0 0.0000000e+0
vn 0.0000000e+0 0.0000000e+0 -1.00000000
vn 0.0000000e+0 1.00000000 0.0000000e+0
vn 0.0000000e+0 0.0000000e+0 -1.00000000
vn -1.00000000 0.0000000e+0 0.0000000e+0
g cube1_concrete
usemtl concrete
s 1
f 1//1 4//19 2//8
f 2//4 4//16 3//12
f 2//9 12//66 6//31
f 5//23 7//33 8//42
f 6//30 7//38 5//25
f 7//39 10//53 3//14
f 9//44 12//60 2//7
f 10//48 7//34 11//55
f 10//52 13//72 9//46
f 12//65 15//81 11//58
f 13//68 10//49 14//73
f 15//78 12//61 16//83
s 2
f 1//2 5//26 4//21
f 3//15 10//54 2//10
f 4//18 5//22 8//41
f 6//29 12//63 7//37
f 9//43 2//6 10//47
f 11//56 7//35 12//59
f 14//75 15//79 13//71
f 16//82 13//67 15//76
s 3
f 2//11 5//27 1//3
f 4//20 7//36 3//13
f 6//28 5//24 2//5
f 8//40 7//32 4//17
f 9//45 13//70 12//64
f 11//57 15//80 10//51
f 14//74 10//50 15//77
f 16//84 12//62 13//69
