# Exported from Wings 3D 1.2
mtllib platform_middle.mtl
o cube1
#16 vertices, 28 faces
v 1.9868563e-4 -1.3276931e-20 0.92459316
v 1.9868563e-4 0.35000000 0.92459316
v 1.00246798 0.35000000 0.92459316
v 1.00246798 -3.2413296e-18 0.92459316
v 1.9868563e-4 -1.3276931e-20 7.1561574e-2
v 1.9868563e-4 0.35000000 7.1561574e-2
v 1.00246798 0.35000000 7.1561574e-2
v 1.00246798 -3.2413296e-18 7.1561574e-2
v 1.9868563e-4 0.37097152 0.99508077
v 1.00246798 0.37097152 0.99508077
v 1.00246798 0.37097152 1.0739655e-3
v 1.9868563e-4 0.37097152 1.0739655e-3
v 1.9868563e-4 0.40301134 0.99508077
v 1.00246798 0.40301134 0.99508077
v 1.00246798 0.40301134 1.0739655e-3
v 1.9868563e-4 0.40301134 1.0739655e-3
vn 0.0000000e+0 0.0000000e+0 1.00000000
vn -3.2207439e-18 -1.00000000 0.0000000e+0
vn -1.00000000 0.0000000e+0 0.0000000e+0
vn 0.0000000e+0 0.0000000e+0 1.00000000
vn 0.0000000e+0 -0.95847786 0.28516697
vn -1.00000000 0.0000000e+0 0.0000000e+0
vn 0.0000000e+0 0.0000000e+0 1.00000000
vn 0.0000000e+0 -0.95847786 0.28516697
vn -1.00000000 0.0000000e+0 0.0000000e+0
vn -1.00000000 0.0000000e+0 0.0000000e+0
vn -1.00000000 0.0000000e+0 0.0000000e+0
vn 0.0000000e+0 0.0000000e+0 1.00000000
vn 1.00000000 1.6367602e-15 0.0000000e+0
vn 1.00000000 1.6367602e-15 0.0000000e+0
vn 1.00000000 1.6367602e-15 0.0000000e+0
vn 0.0000000e+0 -0.95847786 0.28516697
vn 0.0000000e+0 0.0000000e+0 1.00000000
vn -3.2207439e-18 -1.00000000 0.0000000e+0
vn 1.00000000 0.0000000e+0 0.0000000e+0
vn 0.0000000e+0 0.0000000e+0 1.00000000
vn 1.00000000 0.0000000e+0 0.0000000e+0
vn -3.2207439e-18 -1.00000000 0.0000000e+0
vn -3.2207439e-18 -1.00000000 0.0000000e+0
vn -6.5851858e-19 0.0000000e+0 -1.00000000
vn -3.2207439e-18 -1.00000000 0.0000000e+0
vn -6.5851858e-19 0.0000000e+0 -1.00000000
vn -1.00000000 0.0000000e+0 0.0000000e+0
vn -1.00000000 0.0000000e+0 0.0000000e+0
vn 0.0000000e+0 0.0000000e+0 -1.00000000
vn 0.0000000e+0 -0.95847786 -0.28516697
vn -1.00000000 0.0000000e+0 0.0000000e+0
vn -1.00000000 0.0000000e+0 0.0000000e+0
vn -1.00000000 0.0000000e+0 0.0000000e+0
vn -1.00000000 0.0000000e+0 0.0000000e+0
vn -6.5851858e-19 0.0000000e+0 -1.00000000
vn 0.0000000e+0 -0.95847786 -0.28516697
vn 1.00000000 9.8205612e-16 0.0000000e+0
vn 1.00000000 9.8205612e-16 0.0000000e+0
vn 1.00000000 9.8205612e-16 0.0000000e+0
vn 1.00000000 9.8205612e-16 0.0000000e+0
vn 1.00000000 9.8205612e-16 0.0000000e+0
vn -6.5851858e-19 0.0000000e+0 -1.00000000
vn 0.0000000e+0 -0.95847786 -0.28516697
vn -3.2207439e-18 -1.00000000 0.0000000e+0
vn -1.3170372e-18 0.0000000e+0 -1.00000000
vn 1.00000000 0.0000000e+0 0.0000000e+0
vn 0.0000000e+0 -0.95847786 0.28516697
vn -1.00000000 0.0000000e+0 0.0000000e+0
vn 0.0000000e+0 0.0000000e+0 1.00000000
vn 0.0000000e+0 -0.95847786 0.28516697
vn 0.0000000e+0 0.0000000e+0 1.00000000
vn 1.00000000 0.0000000e+0 0.0000000e+0
vn 0.0000000e+0 0.0000000e+0 1.00000000
vn 0.0000000e+0 -0.95847786 0.28516697
vn 0.0000000e+0 -0.95847786 -0.28516697
vn 1.00000000 0.0000000e+0 0.0000000e+0
vn 0.0000000e+0 0.0000000e+0 -1.00000000
vn 0.0000000e+0 -0.95847786 -0.28516697
vn 0.0000000e+0 0.0000000e+0 -1.00000000
vn 0.0000000e+0 -0.95847786 -0.28516697
vn 0.0000000e+0 0.0000000e+0 -1.00000000
vn -1.00000000 0.0000000e+0 0.0000000e+0
vn 0.0000000e+0 1.00000000 0.0000000e+0
vn 0.0000000e+0 0.0000000e+0 1.00000000
vn -1.00000000 0.0000000e+0 0.0000000e+0
vn 0.0000000e+0 1.00000000 0.0000000e+0
vn 0.0000000e+0 0.0000000e+0 1.00000000
vn -1.00000000 0.0000000e+0 0.0000000e+0
vn -1.00000000 0.0000000e+0 0.0000000e+0
vn 0.0000000e+0 0.0000000e+0 1.00000000
vn 1.00000000 1.6367602e-15 0.0000000e+0
vn 1.00000000 1.6367602e-15 0.0000000e+0
vn 1.00000000 1.6367602e-15 0.0000000e+0
vn 0.0000000e+0 1.00000000 0.0000000e+0
vn 0.0000000e+0 1.00000000 0.0000000e+0
vn 0.0000000e+0 0.0000000e+0 -1.00000000
vn 1.00000000 0.0000000e+0 0.0000000e+0
vn 1.00000000 0.0000000e+0 0.0000000e+0
vn 0.0000000e+0 0.0000000e+0 -1.00000000
vn 0.0000000e+0 1.00000000 0.0000000e+0
vn 0.0000000e+0 1.00000000 0.0000000e+0
vn 0.0000000e+0 0.0000000e+0 -1.00000000
vn -1.00000000 0.0000000e+0 0.0000000e+0
vn -1.00000000 0.0000000e+0 0.0000000e+0
g cube1_concrete
usemtl concrete
s 1
f 1//1 4//20 2//7
f 2//4 4//17 3//12
f 5//24 7//35 8//45
f 6//29 7//42 5//26
f 10//53 13//67 9//49
f 12//61 15//79 11//57
f 13//64 10//51 14//70
f 15//76 12//59 16//82
s 2
f 1//2 5//25 4//22
f 3//16 10//54 2//8
f 4//18 5//23 8//44
f 6//30 12//60 7//43
f 9//47 2//5 10//50
f 11//55 7//36 12//58
f 14//74 15//80 13//66
f 16//81 13//63 15//75
s 3
f 2//9 5//27 1//3
f 3//15 14//72 10//52
f 4//21 7//38 3//13
f 5//28 2//11 6//32
f 6//34 16//84 12//62
f 7//40 14//71 3//14
f 8//46 7//37 4//19
f 9//48 13//65 2//6
f 11//56 15//77 7//39
f 13//68 6//31 2//10
f 14//73 7//41 15//78
f 16//83 6//33 13//69
