# Exported from Wings 3D 1.0.2
mtllib pine.mtl
o cone3
#33 vertices, 62 faces
v 0.16339312 0.23799933 -1.7209434e-3
v 0.13566365 0.23330713 0.11683553
v 3.4450523e-3 0.23648941 0.17071593
v -0.10735936 0.23330045 0.12236904
v -0.17045429 0.23651482 3.4302535e-3
v -0.11965518 0.25208214 -0.11073493
v 1.8848099e-3 0.25205666 -0.15848517
v 0.11523906 0.23648941 -0.11970496
v 9.6860002e-3 0.78078719 -8.6410818e-3
v 0.10047897 0.19506940 -1.8322153e-17
v 7.1049360e-2 0.19506940 7.1049360e-2
v -5.4950392e-17 0.19506940 0.10047897
v -7.1049360e-2 0.19506940 7.1049360e-2
v -0.10047897 0.19506940 -6.0170285e-18
v -7.1049360e-2 0.19506940 -7.1049360e-2
v -7.9560642e-17 0.19506940 -0.10047897
v 7.1049360e-2 0.19506940 -7.1049360e-2
v 0.16962225 0.41237854 1.0609646e-2
v 8.7195279e-2 0.59544024 4.5176253e-3
v 0.12022329 0.41565936 0.10418018
v 6.6120221e-2 0.60223044 5.2160240e-2
v 1.1367726e-2 0.41246627 0.15339994
v 1.2146789e-2 0.59904487 7.9299937e-2
v -9.7792517e-2 0.41245786 0.10852547
v -5.5703395e-2 0.60222913 5.7398728e-2
v -0.15559354 0.43189605 1.2685431e-2
v -8.3434776e-2 0.60229906 -8.3393723e-3
v -0.11310293 0.41001822 -0.11460315
v -6.6445472e-2 0.61786638 -4.0880463e-2
v 3.9746359e-3 0.40933624 -0.15800551
v 1.1987887e-3 0.60222913 -7.9975281e-2
v 0.10939072 0.41565521 -0.10866975
v 4.9414624e-2 0.60223375 -5.7243003e-2
vn 0.86956295 -0.48780359 -7.6863114e-2
vn 0.62863541 -0.50664439 0.59002456
vn -1.1884008e-2 -0.47057543 0.88227974
vn -0.60051568 -0.46020543 0.65390510
vn -0.87800553 -0.47861063 -6.1775469e-3
vn -0.62426471 -0.41042485 -0.66471423
vn -4.8088526e-2 -0.39185443 -0.91876961
vn 0.60231750 -0.46088997 -0.65176227
vn 4.0850614e-2 0.99911787 -9.7319497e-3
vn 0.42588078 -0.90414697 -3.3820386e-2
vn 0.12380587 -0.98380837 0.12958857
vn -4.2823018e-3 -0.95689466 0.29040364
vn -0.19508069 -0.96273348 0.18731731
vn -0.45769776 -0.88865367 -2.8415162e-2
vn -0.19760643 -0.95943223 -0.20110072
vn -2.9433028e-2 -0.91805937 -0.39534883
vn 0.19516155 -0.96159854 -0.19297724
vn 0.97443034 0.22177263 -3.6088856e-2
vn 0.91606301 0.39369980 -7.6348110e-2
vn 0.66479732 0.24294258 0.70641590
vn 0.66012508 0.39487861 0.63898808
vn 2.1647560e-2 0.23504775 0.97174273
vn 7.0506625e-2 0.40194382 0.91294577
vn -0.62261173 0.21348771 0.75284636
vn -0.59833274 0.40063467 0.69389465
vn -0.97125109 0.22675968 7.2466280e-2
vn -0.90273133 0.42787942 4.4669347e-2
vn -0.69504004 0.20175665 -0.69008231
vn -0.67875376 0.39310708 -0.62029038
vn 1.0478140e-2 0.20426590 -0.97885936
vn -3.5590116e-3 0.37296732 -0.92783765
vn 0.67485191 0.23105799 -0.70084742
vn 0.63752708 0.36160150 -0.68029668
g cone3_leaves
usemtl leaves
f 1//1 10//10 8//8
f 1//1 18//18 2//2
f 2//2 10//10 1//1
f 2//2 18//18 20//20
f 2//2 22//22 3//3
f 3//3 12//12 2//2
f 3//3 22//22 4//4
f 4//4 12//12 3//3
f 4//4 22//22 24//24
f 4//4 26//26 5//5
f 5//5 14//14 4//4
f 5//5 26//26 6//6
f 6//6 14//14 5//5
f 6//6 26//26 28//28
f 6//6 30//30 7//7
f 7//7 16//16 6//6
f 7//7 30//30 8//8
f 8//8 16//16 7//7
f 8//8 18//18 1//1
f 8//8 30//30 32//32
f 9//9 21//21 19//19
f 9//9 23//23 21//21
f 9//9 25//25 23//23
f 9//9 27//27 25//25
f 9//9 29//29 27//27
f 9//9 31//31 29//29
f 9//9 33//33 31//31
f 10//10 2//2 11//11
f 11//11 2//2 12//12
f 11//11 17//17 10//10
f 12//12 4//4 13//13
f 12//12 16//16 11//11
f 13//13 4//4 14//14
f 13//13 15//15 12//12
f 14//14 6//6 15//15
f 14//14 15//15 13//13
f 15//15 6//6 16//16
f 16//16 8//8 17//17
f 16//16 12//12 15//15
f 17//17 8//8 10//10
f 17//17 11//11 16//16
f 18//18 33//33 19//19
f 19//19 21//21 18//18
f 19//19 33//33 9//9
f 20//20 18//18 21//21
f 20//20 22//22 2//2
f 21//21 22//22 20//20
f 22//22 21//21 23//23
f 23//23 25//25 22//22
f 24//24 22//22 25//25
f 24//24 26//26 4//4
f 25//25 26//26 24//24
f 26//26 25//25 27//27
f 27//27 29//29 26//26
f 28//28 26//26 29//29
f 28//28 30//30 6//6
f 29//29 30//30 28//28
f 30//30 29//29 31//31
f 31//31 33//33 30//30
f 32//32 18//18 8//8
f 32//32 30//30 33//33
f 33//33 18//18 32//32
o cylinder2
#32 vertices, 60 faces
v 4.6576084e-2 0.10044800 -1.3180790e-17
v 3.1511344e-2 9.6412815e-2 3.4712733e-2
v -4.0023865e-3 9.6412815e-2 4.9423002e-2
v -3.9161647e-2 0.10044800 3.5513731e-2
v -5.4226387e-2 9.6412815e-2 -8.0099769e-4
v -3.9516118e-2 9.6412815e-2 -3.6314729e-2
v -4.0023865e-3 9.6412815e-2 -5.1024998e-2
v 3.1511344e-2 9.6412815e-2 -3.6314729e-2
v 5.8900296e-2 0.0000000e+0 -1.3107020e-17
v 4.1648799e-2 0.0000000e+0 4.1648799e-2
v -5.3529369e-17 0.0000000e+0 5.8900296e-2
v -4.1648799e-2 0.0000000e+0 4.1648799e-2
v -5.8900296e-2 0.0000000e+0 -5.8938143e-18
v -4.1648799e-2 0.0000000e+0 -4.1648799e-2
v -6.7955781e-17 0.0000000e+0 -5.8900296e-2
v 4.1648799e-2 0.0000000e+0 -4.1648799e-2
v 3.5513731e-2 0.14604695 3.5513731e-2
v 5.0224000e-2 0.14604695 -1.5952562e-17
v 3.5513731e-2 0.14604695 -3.5513731e-2
v -6.6915852e-17 0.14604695 -5.0224000e-2
v -3.5513731e-2 0.14604695 -3.5513731e-2
v -5.0224000e-2 0.14604695 -9.8018956e-18
v -3.5868202e-2 0.14201176 3.4712733e-2
v -3.5447083e-4 0.14201176 4.9423002e-2
v 3.5513731e-2 0.19663567 3.5513731e-2
v 5.0224000e-2 0.19663567 -2.7261391e-17
v 3.5513731e-2 0.19663567 -3.5513731e-2
v -6.6915852e-17 0.19663567 -5.0224000e-2
v -3.5513731e-2 0.19663567 -3.5513731e-2
v -5.0224000e-2 0.19663567 -2.1110725e-17
v -3.5513731e-2 0.19663567 3.5513731e-2
v -5.4614520e-17 0.19663567 5.0224000e-2
vn 0.99975168 2.0739531e-2 8.1521107e-3
vn 0.70159143 2.9608456e-2 0.71196405
vn 1.0528075e-2 4.8875282e-2 0.99874940
vn -0.70210416 6.2701850e-2 0.70930827
vn -0.99791881 6.4428064e-2 -2.6580532e-3
vn -0.70567558 6.1464753e-2 -0.70586405
vn -1.5106333e-4 4.8795527e-2 -0.99880878
vn 0.70593708 3.2220409e-2 -0.70754129
vn 0.82161713 -0.57002996 3.3370682e-3
vn 0.50875049 -0.69419424 0.50918296
vn 5.3422621e-3 -0.17234808 0.98502162
vn -0.38073201 -0.84274441 0.38055880
vn -0.79454198 -0.60720854 -9.1353498e-4
vn -0.49288056 -0.71716102 -0.49269547
vn -4.8499934e-4 -0.18641250 -0.98247145
vn 0.38855931 -0.83528037 -0.38900948
vn 0.69927239 -3.3958014e-2 0.71404830
vn 0.99919510 -4.0067010e-2 1.9470124e-3
vn 0.70676240 -2.2768615e-2 -0.70708451
vn 9.5145346e-5 8.0587199e-3 -0.99996752
vn -0.70653372 3.4148441e-2 -0.70685500
vn -0.99911937 4.1957703e-2 1.7567207e-4
vn -0.70526432 3.1821974e-2 0.70822990
vn -2.7173672e-3 -4.8552824e-3 0.99998452
vn 0.61912577 0.47390131 0.62617955
vn 0.87946522 0.47596315 2.6421262e-17
vn 0.54898507 0.63026247 -0.54898507
vn -2.2057113e-16 0.85145490 -0.52442784
vn -0.62187582 0.47596315 -0.62187582
vn -0.87946522 0.47596315 0.0000000e+0
vn -0.55062586 0.62753011 0.55046991
vn -7.3544194e-6 0.84934165 0.52784351
g cylinder2_bark
usemtl bark
f 34//34 42//42 41//41
f 34//34 51//51 35//35
f 35//35 42//42 34//34
f 35//35 44//44 43//43
f 35//35 57//57 36//36
f 36//36 44//44 35//35
f 36//36 57//57 37//37
f 37//37 44//44 36//36
f 37//37 46//46 45//45
f 37//37 55//55 38//38
f 38//38 46//46 37//37
f 38//38 55//55 39//39
f 39//39 46//46 38//38
f 39//39 48//48 47//47
f 39//39 53//53 40//40
f 40//40 48//48 39//39
f 40//40 53//53 41//41
f 41//41 42//42 49//49
f 41//41 48//48 40//40
f 41//41 51//51 34//34
f 42//42 46//46 49//49
f 43//43 42//42 35//35
f 43//43 45//45 42//42
f 44//44 45//45 43//43
f 45//45 44//44 37//37
f 46//46 42//42 45//45
f 47//47 46//46 39//39
f 47//47 49//49 46//46
f 48//48 49//49 47//47
f 49//49 48//48 41//41
f 50//50 35//35 51//51
f 50//50 57//57 35//35
f 50//50 58//58 57//57
f 51//51 41//41 52//52
f 51//51 58//58 50//50
f 52//52 41//41 53//53
f 52//52 60//60 51//51
f 53//53 39//39 54//54
f 53//53 60//60 52//52
f 54//54 39//39 55//55
f 54//54 62//62 53//53
f 55//55 37//37 56//56
f 55//55 62//62 54//54
f 56//56 37//37 57//57
f 56//56 64//64 55//55
f 57//57 64//64 56//56
f 58//58 51//51 59//59
f 58//58 60//60 65//65
f 59//59 51//51 60//60
f 59//59 60//60 58//58
f 60//60 53//53 61//61
f 61//61 53//53 62//62
f 61//61 65//65 60//60
f 62//62 55//55 63//63
f 62//62 64//64 61//61
f 63//63 55//55 64//64
f 63//63 64//64 62//62
f 64//64 57//57 65//65
f 65//65 57//57 58//58
f 65//65 61//61 64//64
