# Exported from Wings 3D 1.2
mtllib platform_end.mtl
o cube1
#16 vertices, 28 faces
v 9.2288014e-5 0.0000000e+0 0.92878545
v 9.2288014e-5 0.35000000 0.92878545
v 0.99828332 8.9724982e-2 0.70632030
v 0.99828332 0.0000000e+0 0.70632030
v 9.2288014e-5 0.0000000e+0 7.2688521e-2
v 9.2288014e-5 0.35000000 7.2688521e-2
v 0.99828332 8.9724982e-2 0.25682953
v 0.99828332 0.0000000e+0 0.25682953
v 9.2288014e-5 0.37097152 0.99927305
v 0.99828332 0.11069650 0.77680791
v 0.99828332 0.11069650 0.18634193
v 9.2288014e-5 0.37097152 1.6073986e-4
v 9.2288014e-5 0.40301134 0.99927305
v 0.99828332 0.14273632 0.77680791
v 0.99828332 0.14273632 0.18634193
v 9.2288014e-5 0.40301134 1.6073986e-4
vn 0.21753136 0.0000000e+0 0.97605333
vn 0.0000000e+0 -1.00000000 0.0000000e+0
vn -1.00000000 0.0000000e+0 0.0000000e+0
vn 0.21753136 0.0000000e+0 0.97605333
vn -1.00000000 0.0000000e+0 0.0000000e+0
vn -0.18321078 -0.94225433 0.28034013
vn -1.00000000 2.0212782e-19 0.0000000e+0
vn 0.21753136 0.0000000e+0 0.97605333
vn -1.00000000 2.0212782e-19 0.0000000e+0
vn -0.18321078 -0.94225433 0.28034013
vn -1.00000000 0.0000000e+0 0.0000000e+0
vn 0.21753136 0.0000000e+0 0.97605333
vn 1.00000000 0.0000000e+0 0.0000000e+0
vn 1.00000000 -1.1777675e-14 0.0000000e+0
vn -0.18321078 -0.94225433 0.28034013
vn 0.21753136 0.0000000e+0 0.97605333
vn 1.00000000 0.0000000e+0 0.0000000e+0
vn 0.0000000e+0 -1.00000000 0.0000000e+0
vn 0.21753136 0.0000000e+0 0.97605333
vn 1.00000000 0.0000000e+0 0.0000000e+0
vn 0.0000000e+0 -1.00000000 0.0000000e+0
vn 0.0000000e+0 -1.00000000 0.0000000e+0
vn 0.18141371 0.0000000e+0 -0.98340687
vn -1.00000000 0.0000000e+0 0.0000000e+0
vn 0.18141371 0.0000000e+0 -0.98340687
vn 0.0000000e+0 -1.00000000 0.0000000e+0
vn -1.00000000 0.0000000e+0 0.0000000e+0
vn -1.00000000 0.0000000e+0 0.0000000e+0
vn -0.19540270 -0.94212858 -0.27241794
vn 0.18141371 0.0000000e+0 -0.98340687
vn -1.00000000 0.0000000e+0 0.0000000e+0
vn 1.00000000 0.0000000e+0 0.0000000e+0
vn 0.18141371 0.0000000e+0 -0.98340687
vn 1.00000000 -5.8888373e-15 0.0000000e+0
vn -0.19421838 -0.94129742 -0.27611301
vn 1.00000000 0.0000000e+0 0.0000000e+0
vn -0.19421838 -0.94129742 -0.27611301
vn 0.18141371 0.0000000e+0 -0.98340687
vn 1.00000000 -5.8888373e-15 0.0000000e+0
vn 1.00000000 0.0000000e+0 0.0000000e+0
vn 0.0000000e+0 -1.00000000 0.0000000e+0
vn 0.18141371 0.0000000e+0 -0.98340687
vn -0.18321078 -0.94225433 0.28034013
vn -1.00000000 4.0425564e-19 0.0000000e+0
vn -1.00000000 0.0000000e+0 0.0000000e+0
vn 0.21753136 0.0000000e+0 0.97605333
vn -0.18321078 -0.94225433 0.28034013
vn 1.00000000 -5.8888373e-15 0.0000000e+0
vn 0.21753136 0.0000000e+0 0.97605333
vn 1.00000000 0.0000000e+0 0.0000000e+0
vn 1.00000000 0.0000000e+0 0.0000000e+0
vn 0.21753136 0.0000000e+0 0.97605333
vn 1.00000000 -5.8888373e-15 0.0000000e+0
vn -0.18321078 -0.94225433 0.28034013
vn 1.00000000 0.0000000e+0 0.0000000e+0
vn -0.19303101 -0.94045143 -0.27980373
vn 1.00000000 0.0000000e+0 0.0000000e+0
vn 0.18335645 0.0000000e+0 -0.98304650
vn -0.19421838 -0.94129742 -0.27611301
vn -1.00000000 2.0212782e-19 0.0000000e+0
vn 0.18335645 0.0000000e+0 -0.98304650
vn -1.00000000 0.0000000e+0 0.0000000e+0
vn -0.19421838 -0.94129742 -0.27611301
vn -1.00000000 0.0000000e+0 0.0000000e+0
vn 0.18335645 0.0000000e+0 -0.98304650
vn -1.00000000 2.0212782e-19 0.0000000e+0
vn 0.25231058 0.96764630 0.0000000e+0
vn 0.21753136 0.0000000e+0 0.97605333
vn -1.00000000 0.0000000e+0 0.0000000e+0
vn -1.00000000 0.0000000e+0 0.0000000e+0
vn 0.25231058 0.96764630 0.0000000e+0
vn 0.21753136 0.0000000e+0 0.97605333
vn 0.21753136 0.0000000e+0 0.97605333
vn 1.00000000 0.0000000e+0 0.0000000e+0
vn 0.25231058 0.96764630 0.0000000e+0
vn 0.25231058 0.96764630 0.0000000e+0
vn 1.00000000 0.0000000e+0 0.0000000e+0
vn 0.18335645 0.0000000e+0 -0.98304650
vn 0.25231058 0.96764630 0.0000000e+0
vn 1.00000000 0.0000000e+0 0.0000000e+0
vn 0.18335645 0.0000000e+0 -0.98304650
vn 0.25231058 0.96764630 0.0000000e+0
vn 0.18335645 0.0000000e+0 -0.98304650
vn -1.00000000 0.0000000e+0 0.0000000e+0
g cube1_concrete
usemtl concrete
s 1
f 1//1 4//19 2//8
f 2//4 4//16 3//12
f 2//9 12//66 6//31
f 5//23 7//33 8//42
f 6//30 7//38 5//25
f 7//39 10//53 3//14
f 9//44 12//60 2//7
f 10//48 7//34 11//55
f 10//52 13//72 9//46
f 12//65 15//81 11//58
f 13//68 10//49 14//73
f 15//78 12//61 16//83
s 2
f 1//2 5//26 4//21
f 3//15 10//54 2//10
f 4//18 5//22 8//41
f 6//29 12//63 7//37
f 9//43 2//6 10//47
f 11//56 7//35 12//59
f 14//75 15//79 13//71
f 16//82 13//67 15//76
s 3
f 2//11 5//27 1//3
f 4//20 7//36 3//13
f 6//28 5//24 2//5
f 8//40 7//32 4//17
f 9//45 13//70 12//64
f 11//57 15//80 10//51
f 14//74 10//50 15//77
f 16//84 12//62 13//69
